<?xml version="1.0" standalone="no"?>
<!DOCTYPE svg PUBLIC "-//W3C//DTD SVG 20010904//EN"
 "http://www.w3.org/TR/2001/REC-SVG-20010904/DTD/svg10.dtd">
<svg version="1.0" xmlns="http://www.w3.org/2000/svg"
 width="1024.000000pt" height="1024.000000pt" viewBox="0 0 1024.000000 1024.000000"
 preserveAspectRatio="xMidYMid meet">
<metadata>
Created by potrace 1.16, written by Peter Selinger 2001-2019
</metadata>
<g transform="translate(0.000000,1024.000000) scale(0.100000,-0.100000)"
fill="#000000" stroke="none">
<path d="M3698 10013 c6 -2 18 -2 25 0 6 3 1 5 -13 5 -14 0 -19 -2 -12 -5z"/>
<path d="M6498 10013 c6 -2 18 -2 25 0 6 3 1 5 -13 5 -14 0 -19 -2 -12 -5z"/>
<path d="M6555 9999 c-19 -7 -18 -8 3 -8 27 -1 52 -23 52 -45 0 -9 5 -16 11
-16 6 0 9 -9 6 -20 -3 -11 -1 -20 5 -20 13 0 38 -26 38 -39 0 -15 49 -61 65
-61 8 0 15 -9 15 -20 0 -11 7 -20 15 -20 8 0 29 -13 47 -30 17 -16 35 -30 41
-30 5 0 23 -13 39 -30 15 -16 35 -30 43 -30 8 0 15 -4 15 -8 0 -5 12 -15 28
-23 15 -8 34 -22 43 -31 9 -10 22 -18 28 -18 14 0 49 -20 75 -42 11 -10 25
-18 31 -18 6 0 17 -9 25 -20 8 -11 19 -20 26 -20 19 0 75 -32 81 -46 3 -8 11
-14 18 -14 20 0 76 -31 82 -46 3 -8 11 -14 18 -14 20 0 76 -31 82 -46 3 -8 11
-14 18 -14 20 0 76 -31 82 -46 3 -8 14 -14 24 -14 10 0 24 -9 31 -20 7 -11 18
-20 24 -20 20 0 75 -32 81 -46 3 -8 14 -14 24 -14 10 0 24 -9 31 -20 7 -11 21
-20 30 -20 10 0 23 -9 30 -20 7 -11 21 -20 30 -20 10 0 23 -9 30 -20 7 -11 21
-20 30 -20 10 0 23 -9 30 -20 7 -11 21 -20 30 -20 10 0 23 -9 30 -20 7 -11 20
-20 29 -20 9 0 27 -13 40 -30 13 -16 32 -30 41 -30 10 0 23 -9 30 -20 7 -11
20 -20 30 -20 9 0 28 -13 41 -30 14 -16 32 -30 40 -30 9 0 27 -13 40 -30 14
-16 32 -30 40 -30 8 0 31 -18 51 -40 20 -22 42 -40 49 -40 8 0 40 -27 71 -60
32 -33 63 -60 70 -60 15 0 426 -413 426 -429 0 -6 14 -23 31 -38 17 -16 38
-41 46 -58 9 -16 24 -35 33 -42 10 -7 23 -26 30 -43 7 -16 16 -30 21 -30 5 0
27 -28 49 -62 52 -81 61 -96 83 -123 9 -13 17 -30 17 -39 0 -9 4 -16 9 -16 5
0 13 -9 16 -20 3 -11 12 -26 19 -33 8 -7 23 -31 35 -53 12 -21 30 -52 41 -69
10 -16 19 -38 19 -47 1 -10 5 -18 9 -18 4 0 18 -19 30 -42 12 -24 31 -56 41
-73 11 -16 20 -38 20 -47 1 -10 5 -18 9 -18 5 0 14 -10 21 -22 6 -13 20 -36
30 -53 11 -16 20 -37 20 -45 1 -8 10 -21 21 -28 11 -7 20 -20 20 -30 0 -9 9
-23 20 -30 11 -7 20 -20 20 -30 0 -9 9 -23 20 -30 11 -7 20 -19 20 -27 0 -8
32 -45 70 -82 39 -37 70 -74 71 -82 0 -9 4 -6 10 8 6 16 6 28 -1 35 -5 5 -10
20 -10 32 0 13 -4 26 -10 29 -5 3 -10 15 -10 26 0 10 -4 27 -9 37 -9 17 -23
51 -40 95 -4 12 -14 36 -21 52 -15 37 -30 73 -40 100 -36 96 -227 474 -270
535 -11 16 -20 30 -20 33 0 15 -181 292 -292 447 -47 66 -182 233 -262 325
-116 133 -423 434 -551 540 -214 179 -504 386 -681 486 -19 10 -50 28 -69 39
-85 48 -105 60 -200 108 -117 60 -262 127 -352 163 -13 5 -35 14 -50 20 -16 7
-37 15 -48 19 -30 11 -78 31 -97 41 -10 5 -26 9 -36 9 -10 0 -22 4 -27 8 -6 5
-30 14 -55 21 -25 7 -54 17 -65 21 -11 4 -40 13 -65 20 -25 7 -54 15 -65 20
-11 4 -29 4 -40 -1z"/>
<path d="M3595 9993 c-16 -3 -34 -9 -39 -14 -6 -5 -20 -9 -32 -9 -13 0 -26 -4
-29 -10 -3 -5 -17 -10 -30 -10 -13 0 -27 -4 -30 -10 -3 -5 -15 -10 -26 -10
-10 0 -27 -4 -37 -9 -23 -12 -60 -26 -102 -41 -19 -7 -45 -16 -57 -21 -13 -5
-33 -13 -45 -18 -13 -5 -45 -19 -73 -31 -27 -12 -59 -26 -70 -30 -38 -16 -330
-160 -390 -194 -112 -62 -140 -78 -167 -97 -14 -11 -29 -19 -32 -19 -18 0
-415 -277 -496 -346 -14 -12 -68 -57 -120 -100 -277 -229 -646 -624 -838 -899
-96 -137 -202 -295 -202 -301 0 -3 -8 -18 -19 -32 -10 -15 -28 -44 -40 -64
-11 -21 -31 -55 -43 -75 -103 -182 -202 -383 -268 -548 -4 -11 -17 -41 -29
-67 -12 -26 -21 -52 -21 -58 0 -6 -5 -19 -10 -30 -6 -11 -14 -29 -20 -40 -5
-11 -10 -27 -10 -35 0 -8 -5 -25 -12 -38 -24 -47 -28 -57 -28 -72 0 -8 -5 -24
-12 -34 -9 -15 -9 -25 -1 -43 9 -18 12 -19 12 -5 1 10 23 40 51 68 27 27 50
55 50 61 0 6 14 24 30 40 17 15 30 34 30 42 0 8 14 26 30 39 17 14 30 33 30
41 0 9 5 16 10 16 6 0 10 9 10 21 0 11 4 17 10 14 5 -3 10 1 10 9 0 9 5 16 10
16 6 0 10 9 10 20 0 11 9 25 20 32 11 7 20 18 20 24 0 20 32 75 46 81 8 3 14
13 15 22 0 9 9 30 20 46 10 17 24 40 30 53 7 12 16 22 21 22 4 0 8 7 8 15 0
16 39 77 53 83 4 2 7 10 7 18 0 15 39 76 53 82 4 2 7 12 7 23 0 10 9 24 20 31
11 7 20 21 20 30 0 10 9 23 20 30 11 7 20 21 20 30 0 10 9 23 20 30 11 7 20
19 20 27 0 7 12 28 28 47 15 18 41 52 57 75 17 22 47 59 68 82 20 22 37 44 37
49 0 4 21 30 46 56 25 26 52 58 59 73 8 14 34 44 59 67 25 23 52 54 60 69 15
29 57 70 66 64 3 -2 10 6 16 18 17 33 46 61 63 61 17 0 27 11 61 68 11 17 26
32 34 32 8 0 45 32 82 70 37 39 74 70 81 70 8 0 26 14 40 30 13 17 32 30 41
30 10 0 23 9 30 20 7 11 19 20 28 20 19 0 50 33 59 61 4 11 14 19 23 19 10 0
23 9 30 20 7 11 20 20 30 20 9 0 28 14 41 30 13 17 31 30 41 30 10 0 20 6 23
14 3 8 22 22 41 31 20 10 36 21 36 26 0 5 9 9 20 9 11 0 20 5 20 10 0 6 8 10
18 10 9 0 23 9 30 20 7 11 20 20 30 20 9 0 23 9 30 20 7 11 21 20 31 20 10 0
21 6 24 14 3 8 22 22 41 31 20 10 36 21 36 26 0 5 9 9 20 9 11 0 20 5 20 10 0
6 9 10 19 10 10 0 21 6 24 14 3 8 31 26 61 41 31 15 56 31 56 36 0 5 9 9 20 9
11 0 20 5 20 10 0 6 6 10 13 10 7 0 23 9 35 20 12 11 28 20 37 20 8 0 15 5 15
10 0 6 6 10 13 10 7 0 22 8 33 18 10 9 40 28 67 41 26 13 47 28 47 33 0 4 9 8
20 8 11 0 20 5 20 10 0 6 6 10 13 10 7 0 23 9 35 20 12 11 25 20 30 20 4 0 17
8 28 18 25 22 61 42 74 42 5 0 22 12 37 28 16 15 40 34 56 41 15 8 27 18 27
23 0 4 6 8 14 8 19 0 186 166 186 184 0 9 7 16 15 16 9 0 12 6 9 15 -3 8 1 22
10 31 9 8 14 19 11 24 -3 5 9 11 27 13 32 4 32 4 3 4 -16 0 -43 -2 -60 -4z"/>
<path d="M1867 7765 c-153 -26 -263 -117 -340 -282 l-22 -48 0 -2240 c-1
-1232 3 -2269 7 -2303 20 -152 149 -304 298 -351 19 -6 78 -15 130 -21 52 -6
172 -20 265 -31 94 -11 215 -24 270 -30 55 -5 138 -14 185 -19 324 -34 629
-64 830 -81 735 -61 987 -72 1685 -72 885 1 1499 34 2430 132 50 6 135 15 190
20 121 13 242 27 350 40 44 6 163 20 265 31 163 19 193 26 257 55 113 52 218
179 238 285 3 19 7 1054 9 2300 2 2233 2 2266 -17 2320 -21 59 -80 151 -118
187 -41 38 -138 91 -187 102 -64 16 -6635 21 -6725 6z m6719 -313 c7 -4 13
-68 17 -164 l6 -158 -120 0 c-65 0 -128 -4 -139 -10 -11 -5 -29 -14 -40 -20
-11 -5 -27 -10 -35 -10 -8 0 -15 -3 -15 -8 0 -4 -17 -15 -39 -24 -21 -9 -45
-23 -52 -30 -8 -7 -35 -29 -59 -48 -77 -60 -141 -119 -268 -249 -106 -109
-122 -129 -117 -151 41 -172 22 -266 -77 -375 -69 -76 -158 -115 -262 -115
-56 0 -126 16 -142 33 -13 13 -41 7 -59 -13 -10 -11 -24 -20 -31 -20 -7 0 -14
-4 -16 -8 -4 -11 -155 -112 -167 -112 -5 0 -11 -3 -13 -8 -1 -4 -52 -31 -113
-61 -60 -29 -127 -62 -148 -72 -22 -10 -47 -19 -58 -19 -10 0 -19 -4 -19 -10
0 -5 -11 -10 -24 -10 -14 0 -28 -4 -31 -10 -3 -5 -17 -10 -30 -10 -13 0 -27
-4 -30 -10 -3 -5 -19 -10 -35 -10 -16 0 -32 -4 -35 -10 -3 -5 -19 -10 -35 -10
-16 0 -31 -4 -34 -9 -3 -5 -23 -11 -43 -15 -21 -3 -67 -10 -103 -16 -36 -6
-99 -14 -140 -18 -42 -5 -81 -12 -88 -16 -7 -4 -12 -25 -12 -48 0 -49 -46
-149 -92 -199 -112 -121 -269 -151 -428 -81 -46 20 -145 122 -161 165 -11 31
-15 33 -38 26 -26 -8 -81 -22 -153 -40 -38 -9 -83 -20 -160 -40 -24 -6 -57
-15 -74 -20 -17 -5 -40 -9 -52 -9 -11 0 -24 -4 -27 -10 -3 -5 -21 -10 -40 -10
-19 0 -36 -4 -39 -9 -3 -5 -20 -11 -38 -14 -18 -3 -53 -11 -78 -17 -25 -6 -60
-14 -78 -17 -18 -3 -35 -9 -38 -14 -3 -5 -16 -9 -29 -9 -13 0 -34 -4 -47 -9
-23 -8 -53 -17 -138 -41 -25 -6 -53 -16 -62 -21 -10 -5 -25 -9 -33 -9 -20 0
-19 -14 5 -80 58 -158 -25 -346 -187 -426 -110 -54 -267 -43 -358 26 -31 24
-88 83 -110 113 l-20 29 -126 -124 c-127 -125 -155 -155 -199 -218 -13 -19
-27 -37 -30 -40 -3 -3 -17 -21 -30 -40 -13 -19 -27 -37 -30 -40 -15 -13 -110
-160 -110 -169 0 -6 -4 -11 -10 -11 -5 0 -10 -5 -10 -11 0 -6 -13 -29 -28 -52
-16 -23 -40 -62 -53 -87 -13 -25 -26 -47 -29 -50 -3 -3 -18 -30 -33 -60 -30
-60 -59 -112 -67 -120 -3 -3 -17 -21 -30 -40 -14 -19 -40 -52 -60 -73 -19 -22
-34 -41 -32 -44 2 -2 -6 -13 -17 -22 -12 -10 -21 -22 -21 -26 0 -5 11 2 25 15
14 13 25 30 25 37 0 8 4 12 9 9 4 -3 19 6 31 19 13 14 29 25 35 25 6 0 20 8
31 18 10 9 31 23 47 31 15 8 27 18 27 23 0 4 7 8 15 8 8 0 37 23 64 50 28 28
55 50 60 50 6 0 33 23 60 50 28 28 55 50 60 50 6 0 27 17 48 38 21 20 50 43
66 51 15 8 27 18 27 23 0 4 7 8 15 8 8 0 28 14 45 31 18 19 35 29 45 25 9 -3
15 0 15 10 0 11 6 15 20 11 12 -3 20 0 20 6 0 15 56 41 70 32 5 -3 10 1 10 11
0 11 6 15 20 11 14 -3 20 0 20 10 0 10 6 14 20 10 11 -3 27 2 35 10 9 8 22 12
30 9 9 -3 15 1 15 10 0 11 6 15 20 11 10 -3 25 2 31 10 7 8 21 12 30 10 10 -3
24 2 30 10 7 8 21 12 30 10 10 -3 24 2 30 10 7 8 21 12 31 10 10 -3 20 -2 23
3 6 10 306 160 320 160 6 0 16 9 23 20 7 11 20 20 30 20 9 0 23 9 30 20 7 11
20 20 30 20 9 0 23 9 30 20 7 11 20 20 30 20 9 0 23 9 30 20 7 11 19 20 27 20
8 0 28 14 43 30 16 17 36 30 43 30 8 0 21 9 29 20 8 11 19 20 25 20 6 0 20 8
31 18 26 22 61 42 75 42 6 0 20 10 30 21 10 12 25 19 33 16 9 -4 22 0 30 8 8
8 22 15 30 15 9 0 16 3 16 8 0 11 58 34 69 28 5 -3 14 1 21 9 8 9 26 15 47 13
20 -1 38 3 42 11 6 9 22 12 45 9 26 -3 36 0 36 10 0 10 23 13 110 11 72 -1
115 3 124 10 10 8 64 11 170 10 105 0 161 3 170 11 8 6 38 10 66 9 34 -2 54 2
60 11 5 8 18 11 35 8 14 -3 32 0 38 6 22 20 65 39 75 32 6 -3 13 -2 17 4 9 15
73 42 84 36 5 -4 12 -2 15 3 11 16 555 283 565 276 6 -3 11 1 11 11 0 11 6 15
20 11 14 -3 20 0 20 10 0 10 6 14 20 10 11 -3 22 -1 25 3 9 15 114 62 124 56
5 -3 15 -1 23 6 21 21 67 42 75 35 3 -4 14 0 24 9 10 9 25 14 34 11 9 -4 15
-1 15 9 0 11 10 14 36 12 19 -1 38 2 42 7 11 16 61 39 69 32 3 -4 14 0 24 9
10 9 25 14 33 11 8 -3 20 1 27 9 7 9 21 13 31 11 10 -3 24 0 31 6 21 21 65 40
75 33 6 -3 16 0 24 7 16 15 179 97 193 97 6 0 16 9 23 20 7 11 20 20 30 20 9
0 23 9 30 20 7 11 19 20 27 20 8 0 32 18 54 40 22 22 44 40 49 40 12 0 182
170 182 182 0 5 18 27 40 49 22 22 40 44 40 49 0 6 14 24 30 42 17 17 30 37
30 44 0 8 7 14 15 14 9 0 12 6 9 15 -6 15 17 45 35 45 6 0 8 7 5 15 -6 15 17
45 35 45 6 0 8 7 5 15 -6 15 17 45 35 45 6 0 8 7 5 15 -6 14 37 65 55 65 6 0
8 6 5 14 -6 16 97 126 119 126 7 0 19 9 27 20 8 12 26 20 42 20 15 0 28 5 28
10 0 6 11 10 25 10 14 0 25 -4 25 -10 0 -5 9 -10 20 -10 11 0 20 -6 20 -14 0
-8 4 -17 8 -20 5 -3 8 3 8 12 0 9 2 44 3 77 l4 60 8 -45 c4 -25 8 -952 8
-2061 l1 -2016 -522 -8 c-714 -10 -4409 -10 -5445 0 l-842 8 -3 536 c-2 295
-2 1327 0 2293 l3 1758 3027 3 c1665 1 3189 3 3387 4 198 2 365 -1 371 -5z
m-2741 -4667 c34 -33 45 -52 45 -75 0 -16 -4 -30 -10 -30 -5 0 -10 -12 -10
-26 0 -16 -12 -37 -30 -54 -16 -15 -30 -35 -30 -44 0 -9 -7 -16 -16 -16 -8 0
-37 -22 -64 -50 -27 -27 -55 -50 -62 -50 -8 0 -20 -9 -28 -20 -8 -11 -26 -20
-40 -20 -14 0 -32 -9 -40 -20 -8 -12 -26 -20 -42 -20 -15 0 -28 -4 -28 -10 0
-5 -9 -10 -20 -10 -11 0 -20 -4 -20 -10 0 -5 -18 -10 -40 -10 -22 0 -40 -4
-40 -10 0 -6 -62 -10 -165 -10 -103 0 -165 4 -165 10 0 6 -13 10 -30 10 -16 0
-30 5 -30 10 0 6 -13 10 -30 10 -16 0 -30 5 -30 10 0 6 -8 10 -18 10 -10 0
-24 9 -32 20 -8 11 -26 20 -40 20 -14 0 -32 9 -40 20 -8 11 -21 20 -30 20 -9
0 -22 9 -30 20 -8 11 -20 20 -28 20 -18 0 -42 25 -42 44 0 9 -7 16 -16 16 -19
0 -44 24 -44 42 0 8 -9 20 -20 28 -12 8 -20 26 -20 42 0 15 -4 28 -10 28 -5 0
-10 7 -10 15 0 8 5 15 10 15 6 0 10 11 10 25 0 15 13 39 33 59 l32 34 588 1
588 1 44 -45z"/>
<path d="M8488 6853 c12 -2 30 -2 40 0 9 3 -1 5 -23 4 -22 0 -30 -2 -17 -4z"/>
<path d="M8425 6830 c4 -6 11 -8 16 -5 14 9 11 15 -7 15 -8 0 -12 -5 -9 -10z"/>
<path d="M8390 6809 c0 -5 5 -7 10 -4 6 3 10 8 10 11 0 2 -4 4 -10 4 -5 0 -10
-5 -10 -11z"/>
<path d="M8320 6755 c-24 -25 -42 -45 -39 -45 3 0 25 20 49 45 24 25 42 45 39
45 -3 0 -25 -20 -49 -45z"/>
<path d="M1818 3733 c2 -125 12 -216 19 -195 3 6 9 10 13 7 5 -3 11 -1 15 5 3
5 -1 10 -9 10 -9 0 -16 7 -16 15 0 11 11 15 40 15 22 0 40 5 40 10 0 6 25 10
56 10 34 0 53 -4 49 -10 -3 -5 1 -10 9 -10 9 0 16 -4 16 -10 0 -5 9 -10 21
-10 12 0 17 4 14 11 -4 6 -9 8 -12 5 -15 -14 -210 184 -235 239 -6 14 -14 25
-17 25 -3 0 -5 -53 -3 -117z"/>
<path d="M2515 3610 c-10 -11 -15 -20 -11 -20 11 0 39 30 34 36 -3 2 -13 -5
-23 -16z"/>
<path d="M2465 3580 c-3 -5 -1 -10 4 -10 6 0 11 5 11 10 0 6 -2 10 -4 10 -3 0
-8 -4 -11 -10z"/>
<path d="M2100 3560 c-12 -8 -10 -10 8 -10 13 0 20 4 17 10 -7 12 -6 12 -25 0z"/>
<path d="M2428 3553 c7 -3 16 -2 19 1 4 3 -2 6 -13 5 -11 0 -14 -3 -6 -6z"/>
<path d="M2153 3533 c9 -2 23 -2 30 0 6 3 -1 5 -18 5 -16 0 -22 -2 -12 -5z"/>
<path d="M2363 3533 c9 -2 23 -2 30 0 6 3 -1 5 -18 5 -16 0 -22 -2 -12 -5z"/>
<path d="M2243 3513 c15 -2 37 -2 50 0 12 2 0 4 -28 4 -27 0 -38 -2 -22 -4z"/>
<path d="M4682 2784 c-19 -20 -32 -37 -30 -40 2 -2 22 14 43 36 22 22 35 40
30 39 -6 0 -25 -16 -43 -35z"/>
<path d="M5725 2790 c16 -16 30 -28 33 -26 5 6 -44 56 -54 56 -4 0 5 -13 21
-30z"/>
<path d="M5768 2735 c-3 -14 -1 -28 3 -31 5 -3 9 9 9 25 0 38 -6 40 -12 6z"/>
<path d="M4633 2675 c0 -38 2 -53 4 -32 2 20 2 52 0 70 -2 17 -4 1 -4 -38z"/>
<path d="M5792 2675 c0 -16 2 -22 5 -12 2 9 2 23 0 30 -3 6 -5 -1 -5 -18z"/>
<path d="M5768 2643 c-2 -5 -1 -24 3 -43 l6 -35 2 43 c1 39 -3 52 -11 35z"/>
<path d="M4650 2591 c0 -25 6 -27 13 -6 4 8 2 17 -3 20 -6 4 -10 -3 -10 -14z"/>
<path d="M4670 2567 c0 -10 110 -120 115 -115 3 2 -22 31 -55 63 -33 33 -60
56 -60 52z"/>
<path d="M5715 2530 c-22 -22 -36 -40 -32 -40 10 0 80 70 75 75 -2 3 -22 -13
-43 -35z"/>
<path d="M5645 2480 c-8 -13 9 -20 24 -11 10 6 9 10 -3 14 -8 3 -18 2 -21 -3z"/>
<path d="M4816 2440 c-19 -6 -19 -7 2 -12 12 -4 24 -2 27 2 8 13 -8 18 -29 10z"/>
<path d="M5574 2429 c-10 -11 -12 -19 -6 -19 7 0 12 4 12 9 0 5 12 11 28 13
25 3 25 4 5 9 -15 5 -27 1 -39 -12z"/>
<path d="M4885 2400 c-3 -5 1 -10 10 -10 9 0 13 5 10 10 -3 6 -8 10 -10 10 -2
0 -7 -4 -10 -10z"/>
<path d="M5525 2400 c-3 -5 1 -10 10 -10 9 0 13 5 10 10 -3 6 -8 10 -10 10 -2
0 -7 -4 -10 -10z"/>
<path d="M4925 2380 c-3 -5 1 -10 10 -10 9 0 13 5 10 10 -3 6 -8 10 -10 10 -2
0 -7 -4 -10 -10z"/>
<path d="M5485 2380 c-3 -5 -1 -10 4 -10 6 0 11 5 11 10 0 6 -2 10 -4 10 -3 0
-8 -4 -11 -10z"/>
<path d="M4970 2360 c0 -5 5 -10 11 -10 5 0 7 5 4 10 -3 6 -8 10 -11 10 -2 0
-4 -4 -4 -10z"/>
<path d="M5445 2360 c-3 -5 -1 -10 4 -10 6 0 11 5 11 10 0 6 -2 10 -4 10 -3 0
-8 -4 -11 -10z"/>
<path d="M5040 2340 c-12 -8 -10 -10 8 -10 13 0 20 4 17 10 -7 12 -6 12 -25 0z"/>
<path d="M5365 2340 c-3 -5 -1 -10 4 -10 6 0 11 5 11 10 0 6 -2 10 -4 10 -3 0
-8 -4 -11 -10z"/>
<path d="M5173 2313 c26 -2 67 -2 90 0 23 2 2 3 -48 3 -49 0 -68 -1 -42 -3z"/>
<path d="M9950 6693 c0 -21 3 -24 9 -14 5 8 7 20 4 28 -8 21 -13 15 -13 -14z"/>
<path d="M247 6663 c-3 -5 -1 -17 4 -28 7 -17 8 -17 8 8 1 27 -4 34 -12 20z"/>
<path d="M9971 6634 c0 -11 3 -14 6 -6 3 7 2 16 -1 19 -3 4 -6 -2 -5 -13z"/>
<path d="M232 6585 c0 -16 2 -22 5 -12 2 9 2 23 0 30 -3 6 -5 -1 -5 -18z"/>
<path d="M232 3650 c0 -14 2 -19 5 -12 2 6 2 18 0 25 -3 6 -5 1 -5 -13z"/>
<path d="M252 3585 c0 -16 2 -22 5 -12 2 9 2 23 0 30 -3 6 -5 -1 -5 -18z"/>
<path d="M9971 3594 c0 -11 3 -14 6 -6 3 7 2 16 -1 19 -3 4 -6 -2 -5 -13z"/>
<path d="M266 3541 c-5 -14 -4 -27 3 -34 6 -6 11 -21 11 -33 0 -13 4 -25 8
-28 4 -3 14 -28 22 -56 8 -28 18 -53 22 -56 4 -3 8 -14 8 -25 0 -10 4 -27 9
-37 5 -9 13 -28 19 -42 5 -14 19 -46 31 -72 12 -26 21 -52 21 -57 0 -5 9 -26
19 -48 11 -21 58 -117 106 -213 47 -96 97 -195 112 -220 28 -49 52 -91 83
-145 33 -59 241 -367 294 -435 169 -220 269 -334 471 -535 173 -174 265 -257
420 -381 192 -153 422 -310 625 -427 142 -82 441 -231 535 -267 11 -5 41 -17
67 -29 26 -12 52 -21 58 -21 6 0 18 -4 28 -9 9 -5 31 -14 47 -21 17 -7 38 -16
47 -21 10 -5 27 -9 37 -9 11 0 23 -4 26 -10 3 -5 17 -10 30 -10 13 0 27 -4 30
-10 3 -5 17 -10 30 -10 13 0 27 -4 30 -10 3 -5 15 -10 26 -10 10 0 28 -5 38
-12 11 -7 26 -8 37 -3 18 8 17 9 -3 12 -13 3 -65 45 -115 94 -51 49 -98 89
-104 89 -6 0 -16 11 -22 24 -8 17 -17 23 -30 19 -14 -3 -22 1 -27 16 -3 12
-13 21 -21 21 -8 0 -23 9 -34 20 -11 11 -25 20 -32 20 -6 0 -9 3 -5 6 3 4 -17
18 -46 32 -58 29 -92 57 -92 75 0 7 -4 12 -10 13 -22 1 -85 34 -85 43 0 6 -7
11 -15 11 -8 0 -24 10 -35 23 -12 12 -24 22 -28 23 -20 1 -104 47 -109 59 -3
8 -14 15 -24 15 -10 0 -19 5 -19 10 0 6 -9 10 -20 10 -11 0 -20 7 -20 15 0 8
-18 22 -40 31 -22 9 -40 20 -40 24 0 5 -22 18 -50 31 -27 12 -47 25 -45 28 2
4 -11 13 -28 21 -18 7 -39 22 -48 32 -9 10 -24 18 -33 18 -9 0 -16 4 -16 9 0
5 -8 12 -19 16 -10 3 -31 17 -47 30 -16 14 -35 25 -41 25 -7 0 -13 4 -13 9 0
5 -14 14 -30 21 -17 7 -36 20 -43 30 -7 9 -25 24 -42 33 -16 9 -41 28 -54 42
-13 14 -32 25 -43 25 -21 0 -51 24 -41 34 4 3 0 6 -9 6 -8 0 -42 26 -75 58
-89 84 -111 102 -123 102 -13 0 -41 26 -35 32 3 2 -11 10 -30 17 -19 6 -36 20
-40 30 -7 22 -102 121 -116 121 -18 0 -136 120 -149 151 -7 16 -19 29 -28 29
-17 0 -49 33 -57 60 -3 10 -19 23 -35 30 -16 7 -32 21 -35 31 -4 11 -25 36
-47 57 -22 20 -47 50 -55 67 -9 16 -26 38 -40 48 -13 10 -30 32 -39 49 -9 17
-25 40 -35 52 -38 42 -84 104 -109 146 -14 23 -35 51 -47 63 -13 11 -23 29
-23 39 0 10 -4 18 -8 18 -5 0 -14 12 -21 27 -7 15 -21 33 -32 41 -10 7 -19 21
-19 31 0 11 -6 21 -14 24 -15 6 -46 62 -46 84 0 7 -3 13 -7 13 -5 0 -21 23
-38 51 -16 28 -40 66 -52 85 -13 19 -23 41 -23 49 0 8 -4 15 -8 15 -5 0 -14
10 -21 23 -6 12 -20 36 -30 52 -11 17 -20 37 -20 45 -1 8 -10 21 -21 28 -11 7
-20 21 -20 31 0 11 -3 21 -7 23 -13 5 -53 66 -53 80 0 7 -9 19 -20 26 -11 7
-20 19 -20 27 0 8 -13 28 -30 43 -16 16 -30 34 -30 40 0 6 -18 29 -40 51 -22
22 -40 45 -40 51 0 6 -4 9 -9 5 -5 -3 -11 9 -13 27 -3 31 -4 32 -12 9z"/>
<path d="M9950 3539 c0 -11 4 -18 10 -14 5 3 7 12 3 20 -7 21 -13 19 -13 -6z"/>
<path d="M9931 3492 c-1 -14 -27 -49 -71 -93 -38 -38 -70 -76 -70 -84 0 -8 -9
-20 -20 -27 -11 -7 -20 -21 -20 -30 0 -10 -9 -23 -20 -30 -11 -7 -20 -20 -21
-28 0 -8 -9 -28 -20 -45 -10 -16 -29 -49 -41 -72 -12 -24 -26 -43 -30 -43 -4
0 -8 -8 -9 -17 0 -10 -9 -31 -19 -48 -11 -16 -34 -57 -51 -90 -17 -33 -35 -61
-40 -63 -5 -2 -9 -12 -9 -22 0 -9 -6 -23 -13 -29 -8 -6 -22 -29 -32 -51 -10
-22 -22 -40 -27 -40 -4 0 -8 -7 -8 -16 0 -9 -8 -26 -17 -39 -21 -26 -23 -30
-103 -152 -34 -51 -65 -93 -69 -93 -5 0 -14 -14 -21 -30 -7 -17 -20 -36 -30
-43 -9 -7 -25 -27 -34 -45 -9 -18 -23 -35 -31 -38 -8 -3 -17 -15 -21 -26 -3
-12 -25 -39 -48 -62 -22 -23 -54 -61 -70 -85 -16 -23 -43 -49 -60 -58 -34 -18
-70 -54 -91 -93 -16 -30 -159 -170 -173 -170 -5 0 -41 -32 -78 -71 -38 -39
-80 -77 -94 -84 -15 -7 -44 -31 -66 -53 -23 -21 -52 -42 -66 -45 -13 -4 -43
-23 -66 -44 -89 -81 -130 -113 -163 -127 -19 -9 -30 -15 -26 -16 15 0 -22 -30
-55 -45 -18 -8 -29 -14 -25 -15 19 0 -23 -30 -43 -30 -13 0 -24 -8 -27 -20 -4
-13 -14 -20 -30 -20 -16 0 -27 -7 -30 -20 -4 -13 -14 -20 -30 -20 -16 0 -27
-7 -30 -19 -3 -11 -17 -21 -34 -25 -17 -3 -29 -12 -29 -21 0 -8 -6 -15 -13
-15 -7 0 -22 -8 -33 -18 -26 -22 -61 -42 -75 -42 -6 0 -19 -9 -29 -20 -9 -11
-34 -27 -54 -35 -20 -8 -36 -21 -36 -28 0 -12 -44 -37 -66 -37 -6 0 -14 -7
-17 -15 -5 -12 -88 -58 -109 -59 -3 -1 -17 -10 -30 -21 -29 -25 -81 -59 -90
-60 -3 0 -18 -10 -32 -22 -15 -13 -31 -23 -38 -23 -6 0 -9 -3 -5 -6 8 -8 -18
-34 -33 -34 -7 0 -23 -9 -37 -20 -14 -11 -32 -20 -40 -20 -8 0 -11 -4 -8 -10
3 -5 -2 -10 -12 -10 -10 0 -24 -9 -31 -20 -7 -11 -19 -20 -26 -20 -8 0 -17 -9
-21 -19 -3 -10 -15 -21 -25 -24 -11 -3 -20 -13 -20 -22 0 -12 -6 -16 -20 -12
-12 3 -20 0 -20 -8 0 -11 -34 -29 -52 -26 -4 0 -13 -9 -19 -22 -13 -25 -75
-87 -87 -87 -4 0 -13 -9 -19 -19 -7 -11 -25 -21 -40 -23 l-28 -4 29 -9 c21 -5
31 -5 34 3 2 7 17 12 32 12 16 0 32 4 35 10 3 5 17 10 30 10 13 0 27 5 30 10
3 6 15 10 26 10 10 0 27 4 37 9 23 12 60 26 102 41 40 14 64 23 100 38 23 9
42 17 140 59 51 22 202 92 222 103 10 6 59 32 110 58 115 60 185 100 303 172
178 109 518 358 621 455 6 5 44 39 85 75 135 119 388 379 482 495 9 11 42 52
74 90 57 69 138 176 201 265 80 113 132 190 132 195 0 3 21 38 48 78 26 40 54
86 62 102 8 17 26 48 40 70 24 38 204 397 220 440 4 11 17 40 29 63 11 24 21
48 21 53 0 6 9 29 20 51 11 23 20 48 20 55 0 7 5 22 10 33 6 11 15 29 20 40 6
11 10 29 10 40 0 11 5 20 10 20 6 0 10 13 10 29 0 16 5 31 11 33 7 2 7 11 0
28 -10 25 -10 25 -10 2z"/>
<path d="M4378 2033 c12 -2 32 -2 45 0 12 2 2 4 -23 4 -25 0 -35 -2 -22 -4z"/>
<path d="M6008 2033 c12 -2 32 -2 45 0 12 2 2 4 -23 4 -25 0 -35 -2 -22 -4z"/>
<path d="M4245 2020 c-11 -5 -33 -9 -49 -9 -16 -1 -43 -5 -60 -10 -17 -5 -51
-15 -76 -22 -25 -7 -49 -16 -55 -21 -5 -4 -15 -8 -22 -8 -29 0 -163 -71 -192
-101 -61 -63 -29 -135 86 -196 157 -83 470 -148 863 -180 123 -10 827 -10 950
0 373 30 679 91 847 169 23 11 63 38 88 60 39 34 45 45 45 78 0 52 -39 92
-132 134 -111 51 -173 71 -298 96 -25 5 -60 12 -77 16 -34 6 -109 -3 -99 -13
6 -7 -19 -33 -32 -33 -5 0 -24 -14 -41 -31 -18 -17 -39 -28 -47 -25 -8 3 -14
1 -14 -5 0 -16 -29 -41 -43 -36 -6 2 -34 -7 -60 -20 -26 -13 -55 -22 -65 -21
-10 2 -16 -3 -14 -11 2 -9 -4 -12 -18 -8 -13 3 -20 0 -20 -10 0 -10 -9 -14
-29 -11 -16 1 -36 -3 -45 -11 -8 -7 -22 -11 -30 -8 -8 3 -20 -1 -27 -9 -7 -9
-26 -13 -47 -12 -21 1 -37 -3 -40 -10 -2 -8 -25 -12 -63 -12 -33 0 -59 -4 -59
-10 0 -6 -58 -10 -155 -10 -97 0 -155 4 -155 10 0 6 -30 10 -70 10 -50 0 -70
4 -70 13 0 9 -12 11 -40 9 -30 -3 -40 0 -40 10 0 10 -9 13 -30 10 -21 -3 -30
0 -30 10 0 10 -9 13 -30 10 -22 -3 -30 0 -30 11 0 10 -6 13 -20 10 -14 -4 -20
-1 -18 8 2 8 -3 13 -11 11 -8 -2 -21 0 -30 4 -9 4 -26 8 -39 10 -30 4 -82 27
-82 36 0 5 -7 8 -15 8 -8 0 -29 14 -47 30 -17 17 -35 30 -40 30 -11 0 -62 50
-51 51 23 2 -37 18 -67 18 -19 0 -44 -4 -55 -9z"/>
<path d="M3644 231 c3 -5 15 -7 26 -4 28 7 25 13 -6 13 -14 0 -23 -4 -20 -9z"/>
<path d="M6553 233 c9 -2 23 -2 30 0 6 3 -1 5 -18 5 -16 0 -22 -2 -12 -5z"/>
<path d="M3718 213 c6 -2 18 -2 25 0 6 3 1 5 -13 5 -14 0 -19 -2 -12 -5z"/>
<path d="M6488 213 c7 -3 16 -2 19 1 4 3 -2 6 -13 5 -11 0 -14 -3 -6 -6z"/>
<path d="M3788 193 c7 -3 16 -2 19 1 4 3 -2 6 -13 5 -11 0 -14 -3 -6 -6z"/>
</g>
</svg>
