<?xml version="1.0" standalone="no"?>
<!DOCTYPE svg PUBLIC "-//W3C//DTD SVG 20010904//EN"
 "http://www.w3.org/TR/2001/REC-SVG-20010904/DTD/svg10.dtd">
<svg version="1.0" xmlns="http://www.w3.org/2000/svg"
 width="440.000000pt" height="440.000000pt" viewBox="0 0 440.000000 440.000000"
 preserveAspectRatio="xMidYMid meet">
<metadata>
Created by potrace 1.16, written by Peter Selinger 2001-2019
</metadata>
<g transform="translate(0.000000,440.000000) scale(0.100000,-0.100000)"
fill="#000000" stroke="none">
<path d="M3085 4180 c-3 -5 1 -10 10 -10 9 0 13 5 10 10 -3 6 -8 10 -10 10 -2
0 -7 -4 -10 -10z"/>
<path d="M1288 4173 c7 -3 16 -2 19 1 4 3 -2 6 -13 5 -11 0 -14 -3 -6 -6z"/>
<path d="M1170 4127 c-47 -23 -89 -45 -95 -49 -5 -5 -44 -30 -85 -56 -235
-151 -434 -345 -597 -582 -41 -60 -82 -131 -90 -152 -3 -10 -9 -18 -14 -18 -5
0 -9 -9 -9 -19 0 -11 -6 -21 -12 -24 -11 -4 -11 -7 0 -18 9 -10 12 -10 12 0 0
16 25 41 42 41 7 0 24 14 37 30 13 17 30 30 38 30 8 0 26 14 40 30 13 17 30
30 37 30 7 0 33 18 57 40 125 114 157 140 167 140 7 0 28 18 48 40 20 22 42
40 49 40 7 0 40 27 72 60 32 33 63 60 68 60 14 0 205 187 205 200 0 6 9 20 20
32 11 12 20 28 20 35 0 7 4 13 9 13 12 0 36 61 33 83 -2 10 3 17 13 17 9 0 14
4 10 9 -3 5 3 11 12 13 10 2 14 6 8 10 -6 4 -49 -12 -95 -35z"/>
<path d="M3120 4160 c-12 -8 -10 -10 9 -10 20 0 23 -4 19 -30 -3 -18 1 -35 9
-41 7 -6 13 -18 13 -26 0 -8 14 -28 30 -43 17 -15 30 -32 30 -37 0 -14 211
-223 225 -223 7 0 29 -18 49 -40 20 -22 41 -40 47 -40 11 0 45 -28 137 -110
19 -17 39 -30 46 -30 7 0 27 -16 45 -35 17 -19 36 -35 41 -35 5 0 20 -11 34
-25 14 -14 32 -25 40 -25 9 0 21 -9 28 -20 7 -11 21 -20 30 -20 10 0 23 -9 30
-20 7 -11 20 -20 29 -20 9 0 22 -7 29 -15 9 -10 17 -12 23 -6 6 6 5 14 -2 23
-6 7 -30 42 -52 78 -83 131 -157 220 -303 364 -83 81 -276 236 -295 236 -4 0
-16 8 -27 18 -25 22 -74 52 -96 59 -10 3 -18 9 -18 14 0 5 -9 9 -20 9 -11 0
-20 5 -20 10 0 6 -9 10 -20 10 -11 0 -20 5 -20 10 0 6 -9 10 -20 10 -11 0 -20
5 -20 10 0 13 -11 13 -30 0z"/>
<path d="M742 3325 c-38 -21 -70 -56 -90 -99 -19 -40 -20 -67 -15 -1021 6
-1074 2 -1012 66 -1075 46 -45 56 -47 377 -80 262 -26 823 -68 933 -70 11 0 8
-29 -7 -58 -13 -25 -23 -29 -93 -40 -176 -29 -241 -48 -280 -85 -29 -26 -29
-41 -1 -67 55 -51 247 -88 503 -96 296 -9 537 16 660 71 61 26 69 37 61 71
-11 42 -110 78 -289 104 -81 12 -88 15 -102 43 -30 61 -29 61 225 72 224 10
527 35 890 75 131 14 177 35 220 98 l25 37 5 985 c4 715 2 994 -6 1019 -15 46
-57 96 -95 115 -29 14 -178 16 -1498 15 -1161 -1 -1471 -4 -1489 -14z m2811
-132 l135 -6 4 -52 c5 -79 4 -80 -58 -81 -77 -2 -130 -32 -231 -132 -82 -80
-84 -84 -82 -125 4 -75 -1 -94 -33 -129 -52 -54 -118 -71 -178 -44 -9 4 -29
-6 -50 -24 -19 -16 -40 -30 -47 -30 -6 0 -13 -3 -15 -7 -4 -11 -87 -53 -104
-53 -8 0 -14 -4 -14 -10 0 -5 -9 -10 -19 -10 -11 0 -23 -4 -26 -10 -3 -5 -16
-10 -29 -10 -12 0 -26 -4 -32 -9 -5 -5 -29 -12 -54 -15 -153 -21 -144 -18
-155 -57 -14 -51 -40 -85 -76 -103 -38 -19 -120 -21 -152 -3 -28 16 -67 59
-67 75 0 14 -16 16 -24 3 -3 -5 -23 -11 -43 -14 -53 -7 -94 -17 -118 -27 -21
-9 -59 -18 -113 -27 -18 -3 -35 -9 -38 -14 -3 -5 -18 -9 -34 -9 -16 0 -32 -4
-35 -10 -3 -5 -19 -10 -36 -10 l-29 0 0 -67 c0 -111 -55 -173 -153 -173 -55 0
-80 11 -119 50 l-26 28 -49 -47 c-53 -50 -95 -101 -121 -143 -9 -16 -20 -28
-24 -28 -4 0 -8 -6 -8 -13 0 -7 -8 -22 -17 -33 -20 -22 -35 -48 -67 -109 -12
-22 -23 -42 -26 -45 -3 -3 -18 -22 -33 -43 -40 -53 -63 -73 -113 -97 -56 -26
-92 -25 -143 2 -48 26 -69 44 -106 93 l-27 35 7 765 8 765 171 3 c364 6 2470
7 2599 0z m136 -1180 c-1 -235 -5 -379 -10 -353 -15 89 -9 750 7 750 2 0 3
-179 3 -397z m-458 277 c46 0 79 -4 79 -10 0 -5 14 -10 30 -10 17 0 30 -4 30
-10 0 -5 9 -10 20 -10 11 0 20 -4 20 -10 0 -5 7 -10 15 -10 23 0 68 -48 61
-65 -3 -8 -1 -15 5 -15 21 0 41 -31 36 -55 -3 -17 0 -25 9 -25 8 0 14 -9 14
-20 0 -11 5 -20 10 -20 6 0 10 -20 10 -45 0 -38 -3 -45 -20 -45 -23 0 -22 5
-20 -112 1 -56 -3 -88 -9 -88 -6 0 -11 -13 -11 -28 0 -21 -7 -32 -24 -40 -18
-8 -23 -16 -19 -31 4 -14 1 -21 -9 -21 -11 0 -14 -7 -10 -25 3 -20 -5 -35 -41
-70 -28 -29 -43 -52 -41 -63 3 -10 -4 -23 -17 -32 -52 -36 -69 -52 -64 -61 4
-5 0 -9 -8 -9 -10 0 -13 -7 -10 -18 3 -13 -5 -21 -31 -32 -19 -7 -33 -16 -31
-20 2 -3 -5 -13 -16 -20 -31 -23 -23 -30 34 -30 37 0 48 -3 37 -10 -20 -13
-1910 -13 -1930 0 -10 7 7 10 57 10 39 0 74 4 78 9 3 5 -6 21 -20 35 -29 29
-33 66 -7 66 12 0 10 4 -8 13 -27 14 -40 47 -17 47 16 0 11 61 -7 72 -8 5 -7
8 2 8 6 0 12 9 12 20 0 11 4 20 8 20 5 0 15 12 23 28 17 33 30 47 48 53 12 4
12 7 -1 19 -13 13 -12 17 8 37 13 13 27 23 32 23 5 0 32 23 61 51 31 31 58 49
67 45 8 -3 14 0 14 7 0 7 15 19 34 26 22 9 32 19 29 30 -3 14 35 41 59 41 4 0
21 14 36 30 16 17 37 30 46 30 9 0 16 5 16 11 0 6 9 9 20 6 14 -3 20 0 20 10
0 10 6 14 20 10 14 -3 20 0 20 10 0 10 6 14 20 10 14 -3 20 0 20 10 0 11 8 14
30 11 21 -3 30 0 30 10 0 10 9 13 30 10 21 -3 30 0 30 10 0 10 9 13 30 10 21
-3 30 0 30 10 0 10 9 13 30 10 21 -3 30 0 30 9 0 11 11 14 39 12 22 -2 46 3
55 10 9 7 27 11 41 9 17 -4 25 -1 25 9 0 10 9 14 29 11 16 -1 36 4 45 11 9 7
27 11 41 9 17 -4 25 -1 25 9 0 12 10 14 40 11 29 -3 40 0 40 10 0 10 9 13 30
10 20 -3 30 0 30 9 0 9 13 13 40 13 22 0 40 5 40 10 0 6 18 10 40 10 22 0 40
5 40 10 0 6 27 10 60 10 33 0 60 4 60 10 0 6 33 10 80 10 57 0 80 4 81 13 0
10 2 10 6 0 3 -9 30 -13 84 -13z m456 -702 c-3 -8 -6 -5 -6 6 -1 11 2 17 5 13
3 -3 4 -12 1 -19z"/>
<path d="M3445 2190 c10 -11 20 -20 23 -20 3 0 -3 9 -13 20 -10 11 -20 20 -23
20 -3 0 3 -9 13 -20z"/>
<path d="M4070 3280 c0 -5 5 -10 11 -10 5 0 7 5 4 10 -3 6 -8 10 -11 10 -2 0
-4 -4 -4 -10z"/>
<path d="M355 1020 c10 -11 20 -18 23 -16 5 6 -23 36 -34 36 -4 0 1 -9 11 -20z"/>
<path d="M387 984 c-3 -6 3 -20 13 -32 11 -12 20 -25 20 -29 0 -5 16 -26 35
-48 20 -22 43 -52 52 -66 20 -33 264 -274 323 -319 25 -19 46 -38 48 -42 2 -4
9 -8 15 -8 7 0 25 -11 41 -25 16 -13 37 -27 47 -30 11 -4 19 -11 19 -16 0 -5
5 -9 11 -9 6 0 24 -9 39 -20 18 -13 31 -16 35 -10 3 5 1 10 -5 10 -6 0 -29 18
-51 40 -22 22 -46 40 -54 40 -8 0 -15 7 -15 16 0 20 -24 44 -44 44 -9 0 -16 7
-16 15 0 9 -11 27 -25 40 -13 14 -31 25 -40 25 -8 0 -15 7 -15 15 0 9 -13 24
-30 33 -16 9 -30 23 -30 30 0 16 -126 139 -162 158 -14 7 -35 25 -46 38 -10
14 -31 31 -46 37 -14 7 -26 20 -26 30 0 10 -8 20 -19 24 -24 7 -56 36 -63 55
-3 9 -7 10 -11 4z"/>
<path d="M3970 960 c0 -6 -10 -21 -22 -34 -13 -13 -30 -32 -39 -42 -24 -29
-83 -80 -107 -93 -12 -6 -52 -43 -89 -81 -38 -39 -74 -70 -80 -70 -7 0 -13 -5
-13 -10 0 -6 -26 -35 -57 -65 -32 -30 -65 -61 -73 -69 -8 -8 -20 -20 -26 -26
-7 -7 -20 -20 -30 -29 -11 -10 -26 -27 -34 -39 -8 -12 -21 -22 -29 -22 -12 0
-12 -3 -3 -12 9 -9 15 -9 20 -2 4 5 36 30 72 55 36 24 71 50 78 57 8 7 30 25
50 40 50 37 252 239 282 282 13 19 32 42 42 51 10 9 18 20 18 25 0 5 14 26 30
46 18 21 26 39 20 43 -5 3 -10 1 -10 -5z"/>
<path d="M3330 351 c0 -5 -8 -12 -17 -14 -15 -4 -15 -5 -2 -6 9 0 22 6 29 14
9 10 9 15 1 15 -6 0 -11 -4 -11 -9z"/>
<path d="M3270 309 c0 -5 5 -7 10 -4 6 3 10 8 10 11 0 2 -4 4 -10 4 -5 0 -10
-5 -10 -11z"/>
</g>
</svg>
